<?xml version="1.0" encoding="iso-8859-1"?>
<!-- Generator: Adobe Illustrator 19.0.0, SVG Export Plug-In . SVG Version: 6.00 Build 0)  -->
<svg version="1.1" id="Capa_1" xmlns="http://www.w3.org/2000/svg" xmlns:xlink="http://www.w3.org/1999/xlink" x="0px" y="0px"
	 viewBox="0 0 512.022 512.022" style="enable-background:new 0 0 512.022 512.022;" xml:space="preserve">
<g>
	<g>
		<path d="M256.011,42.689c-64.704,0-117.333,52.629-117.333,117.333c0,5.888,4.779,10.667,10.667,10.667h213.333
			c5.888,0,10.667-4.779,10.667-10.667C373.344,95.318,320.715,42.689,256.011,42.689z M160.608,149.355
			c5.312-47.936,46.08-85.333,95.403-85.333s90.069,37.397,95.403,85.333H160.608z"/>
	</g>
</g>
<g>
	<g>
		<path d="M362.678,192.022H149.344c-5.888,0-10.667,4.779-10.667,10.667v170.667c0,25.771,18.347,47.317,42.667,52.267v54.4
			c0,17.643,14.357,32,32,32c17.643,0,32-14.357,32-32v-53.333h21.333v53.333c0,17.643,14.357,32,32,32s32-14.357,32-32v-54.4
			c24.32-4.971,42.667-26.496,42.667-52.267V202.689C373.344,196.801,368.566,192.022,362.678,192.022z M352.011,373.356
			c0,17.643-14.357,32-32,32c-5.888,0-10.667,4.779-10.667,10.667v64c0,5.888-4.779,10.667-10.667,10.667
			s-10.667-4.779-10.667-10.667v-64c0-5.888-4.779-10.667-10.667-10.667h-42.667c-5.888,0-10.667,4.779-10.667,10.667v64
			c0,5.888-4.779,10.667-10.667,10.667s-10.667-4.779-10.667-10.667v-64c0-5.888-4.779-10.667-10.667-10.667
			c-17.643,0-32-14.357-32-32v-160h192V373.356z"/>
	</g>
</g>
<g>
	<g>
		<circle cx="213.344" cy="117.355" r="10.667"/>
	</g>
</g>
<g>
	<g>
		<circle cx="298.678" cy="117.355" r="10.667"/>
	</g>
</g>
<g>
	<g>
		<path d="M426.678,192.022c-17.643,0-32,14.357-32,32v106.667c0,17.643,14.357,32,32,32c17.643,0,32-14.357,32-32V224.022
			C458.678,206.38,444.32,192.022,426.678,192.022z M437.344,330.689c0,5.888-4.779,10.667-10.667,10.667
			c-5.888,0-10.667-4.779-10.667-10.667V224.022c0-5.888,4.779-10.667,10.667-10.667c5.888,0,10.667,4.779,10.667,10.667V330.689z"
			/>
	</g>
</g>
<g>
	<g>
		<path d="M85.344,192.022c-17.643,0-32,14.357-32,32v106.667c0,17.643,14.357,32,32,32c17.643,0,32-14.357,32-32V224.022
			C117.344,206.38,102.987,192.022,85.344,192.022z M96.011,330.689c0,5.888-4.779,10.667-10.667,10.667
			s-10.667-4.779-10.667-10.667V224.022c0-5.888,4.779-10.667,10.667-10.667s10.667,4.779,10.667,10.667V330.689z"/>
	</g>
</g>
<g>
	<g>
		<path d="M223.776,57.75L201.803,6.486c-2.304-5.44-8.64-7.957-13.995-5.589c-5.419,2.304-7.915,8.576-5.611,13.995l21.973,51.264
			c1.728,4.053,5.675,6.464,9.813,6.464c1.408,0,2.837-0.256,4.203-0.853C223.584,69.441,226.102,63.169,223.776,57.75z"/>
	</g>
</g>
<g>
	<g>
		<path d="M324.192,0.875c-5.355-2.347-11.691,0.192-13.995,5.611L288.224,57.75c-2.325,5.419,0.192,11.669,5.611,13.995
			c1.365,0.597,2.795,0.875,4.203,0.875c4.139,0,8.085-2.411,9.813-6.464l21.952-51.285C332.128,9.451,329.611,3.201,324.192,0.875z
			"/>
	</g>
</g>
<g>
</g>
<g>
</g>
<g>
</g>
<g>
</g>
<g>
</g>
<g>
</g>
<g>
</g>
<g>
</g>
<g>
</g>
<g>
</g>
<g>
</g>
<g>
</g>
<g>
</g>
<g>
</g>
<g>
</g>
</svg>
